<?xml version="1.0" standalone="no"?>
<!DOCTYPE svg PUBLIC "-//W3C//DTD SVG 20010904//EN"
 "http://www.w3.org/TR/2001/REC-SVG-20010904/DTD/svg10.dtd">
<svg version="1.0" xmlns="http://www.w3.org/2000/svg"
 width="700.000000pt" height="700.000000pt" viewBox="0 0 700.000000 700.000000"
 preserveAspectRatio="xMidYMid meet">
<metadata>
Created by potrace 1.14, written by Peter Selinger 2001-2017
</metadata>
<g transform="translate(0.000000,700.000000) scale(0.100000,-0.100000)"
fill="#000000" stroke="none">
<path d="M0 3500 l0 -3500 3500 0 3500 0 0 3500 0 3500 -3500 0 -3500 0 0
-3500z m1942 1561 c13 -5 345 -307 738 -671 393 -365 729 -671 745 -681 39
-24 102 -24 140 0 17 11 352 313 745 671 393 359 731 659 750 667 62 27 133 2
170 -60 20 -31 20 -64 20 -1623 0 -1362 -2 -1593 -14 -1603 -8 -7 -37 -11 -68
-9 l-53 3 -3 364 -2 365 25 36 c48 70 17 154 -58 154 -81 0 -115 -88 -62 -158
l25 -33 0 -354 c0 -263 -3 -358 -12 -367 -16 -16 -110 -16 -126 0 -9 9 -12
184 -12 728 l0 716 25 34 c51 69 19 160 -57 160 -37 -1 -59 -14 -76 -47 -19
-34 -14 -65 16 -108 l27 -40 3 -708 c2 -494 -1 -713 -8 -728 -10 -18 -19 -20
-83 -17 l-72 3 -3 473 -2 473 25 33 c51 67 17 156 -60 156 -79 0 -112 -89 -60
-160 l25 -34 0 -461 c0 -345 -3 -464 -12 -473 -17 -17 -123 -16 -137 2 -9 11
-14 183 -17 663 -6 718 -5 714 -68 753 -41 25 -112 27 -146 3 -14 -9 -152
-126 -307 -260 -155 -134 -299 -254 -319 -268 -45 -30 -97 -32 -141 -6 -32 20
-1482 1289 -1587 1390 -32 31 -69 79 -82 106 -24 50 -24 50 -24 438 0 428 0
426 62 466 35 22 91 27 130 12z m-4 -1538 c436 -387 562 -500 594 -536 68 -76
68 -72 68 -635 0 -563 3 -540 -70 -581 -36 -20 -52 -21 -351 -21 -350 0 -361
2 -406 69 l-23 34 0 851 c0 948 -4 896 66 896 29 0 49 -13 122 -77z"/>
</g>
</svg>
