<svg id="Layer_1" data-name="Layer 1" xmlns="http://www.w3.org/2000/svg" xmlns:xlink="http://www.w3.org/1999/xlink" viewBox="0 0 2000 2000"><defs><linearGradient id="linear-gradient" x1="500.01" y1="1235.15" x2="744.36" y2="1235.15" gradientUnits="userSpaceOnUse"><stop offset="0.31" stop-color="#ba9bc9"/><stop offset="1" stop-color="#ba9bc9"/></linearGradient></defs><rect width="2000" height="2000" rx="500" style="fill:#1a1a1a"/><path d="M533.31,975.4l184.25,164.08a80,80,0,0,1,26.8,59.74V1460a40,40,0,0,1-40,40H540a40,40,0,0,1-40-40V990.34C500,973.07,520.42,963.92,533.31,975.4Z" transform="translate(-0.43 -0.27)" style="fill:url(#linear-gradient)"/><path d="M526.8,843.06A80,80,0,0,1,500,783.32V591.61c0-34.91,41.59-53.07,67.19-29.34L971.32,936.8a40,40,0,0,0,54.12.24l407.63-371c25.69-23.39,66.93-5.16,66.93,29.58V1490a10,10,0,0,1-10,10h-20.18a10,10,0,0,1-10-10V1299.77a24.27,24.27,0,0,1,7.42-17.74,27.63,27.63,0,0,0,8.6-20.2c0-14.93-11.51-27.07-25.72-27.07s-25.71,12.14-25.71,27.07A27.66,27.66,0,0,0,1433,1282a24.27,24.27,0,0,1,7.42,17.74V1490a10,10,0,0,1-10,10h-22.48a10,10,0,0,1-10-10V1092.46a24.23,24.23,0,0,1,7.42-17.72,27.59,27.59,0,0,0,8.6-20.19c0-15-11.51-27.07-25.72-27.07s-25.72,12.11-25.72,27.07a27.59,27.59,0,0,0,8.6,20.19,24.23,24.23,0,0,1,7.42,17.72V1490a10,10,0,0,1-10,10h-27.32a10,10,0,0,1-10-10V1238.25a24.19,24.19,0,0,1,7.42-17.71,27.61,27.61,0,0,0,8.6-20.2c0-15-11.51-27.07-25.72-27.07s-25.72,12.11-25.72,27.07a27.61,27.61,0,0,0,8.6,20.2,24.19,24.19,0,0,1,7.42,17.71V1490a10,10,0,0,1-10,10h-25.77a10,10,0,0,1-10-9.92l-2.79-366c-.27-34.08-40.3-52.24-66.12-30L1029.3,1238.74a40,40,0,0,1-52.23,0" transform="translate(-0.43 -0.27)" style="fill:#fff"/></svg>